<?xml version="1.0" encoding="UTF-8" standalone="no"?>
<!-- Created with Inkscape (http://www.inkscape.org/) -->

<svg
   xmlns:dc="http://purl.org/dc/elements/1.1/"
   xmlns:cc="http://creativecommons.org/ns#"
   xmlns:rdf="http://www.w3.org/1999/02/22-rdf-syntax-ns#"
   xmlns:svg="http://www.w3.org/2000/svg"
   xmlns="http://www.w3.org/2000/svg"
   xmlns:sodipodi="http://sodipodi.sourceforge.net/DTD/sodipodi-0.dtd"
   xmlns:inkscape="http://www.inkscape.org/namespaces/inkscape"
   width="210mm"
   height="297mm"
   viewBox="0 0 744.09448819 1052.3622047"
   id="svg4234"
   version="1.1"
   inkscape:version="0.91 r13725"
   sodipodi:docname="kindergarden.svg">
  <defs
     id="defs4236">
    <inkscape:path-effect
       effect="spiro"
       id="path-effect4271"
       is_visible="true" />
    <inkscape:path-effect
       effect="spiro"
       id="path-effect4218"
       is_visible="true" />
  </defs>
  <sodipodi:namedview
     id="base"
     pagecolor="#ffffff"
     bordercolor="#666666"
     borderopacity="1.0"
     inkscape:pageopacity="0.0"
     inkscape:pageshadow="2"
     inkscape:zoom="0.5"
     inkscape:cx="-163.75807"
     inkscape:cy="795.15981"
     inkscape:document-units="px"
     inkscape:current-layer="layer1"
     showgrid="false"
     showguides="true"
     inkscape:guide-bbox="true"
     inkscape:snap-grids="true"
     inkscape:snap-to-guides="true"
     inkscape:snap-midpoints="false"
     inkscape:window-width="1918"
     inkscape:window-height="1013"
     inkscape:window-x="0"
     inkscape:window-y="29"
     inkscape:window-maximized="1"
     showborder="false">
    <sodipodi:guide
       position="717.00628,660.43775"
       orientation="1,0"
       id="guide5973" />
    <sodipodi:guide
       position="4,680.00002"
       orientation="1,0"
       id="guide4136" />
    <sodipodi:guide
       position="-899.43983,-367.69553"
       orientation="0,1"
       id="guide4156" />
    <sodipodi:guide
       position="370,1068"
       orientation="0,1"
       id="guide4145" />
  </sodipodi:namedview>
  <metadata
     id="metadata4239">
    <rdf:RDF>
      <cc:Work
         rdf:about="">
        <dc:format>image/svg+xml</dc:format>
        <dc:type
           rdf:resource="http://purl.org/dc/dcmitype/StillImage" />
        <dc:title></dc:title>
      </cc:Work>
    </rdf:RDF>
  </metadata>
  <g
     inkscape:label="Layer 1"
     inkscape:groupmode="layer"
     id="layer1">
    <path
       style="fill:#ba00ff;fill-opacity:1"
       d="m 374.64258,112.01562 c -125.05305,0 -219.99917,101.37469 -219.99917,226.42774 0,30.60865 9.49748,67.77976 28.68276,103.125 17.95615,33.0808 42.33883,62.42077 55.62305,85.42969 19.35446,33.5229 35.17774,68.68871 48.33398,100.52539 17.23203,41.69965 26.31591,81.36137 36.33203,117.43554 11.06244,39.84264 19.78867,69.68895 29.71289,97.88477 9.17253,26.06017 22.20413,49.19398 22.20413,49.19397 0,0 0.004,-0.35223 0.0131,-0.61713 l -0.0159,-779.40692 c -0.23877,-7.4e-4 -0.64777,0.002 -0.88672,0.002 z m 1.7793,0 c -0.23896,0 -0.65186,-0.003 -0.89063,-0.002 l -10e-4,779.40692 c 0.009,0.2649 0,0.61713 0,0.61713 0,10e-6 13.03356,-23.13381 22.20608,-49.19397 9.92422,-28.19583 18.65045,-58.04214 29.71289,-97.88477 10.01612,-36.07417 19.1,-75.73589 36.33203,-117.43554 13.15624,-31.83668 28.97952,-67.00249 48.33398,-100.52539 13.28422,-23.00892 37.6669,-52.34889 55.62305,-85.42969 19.18528,-35.34524 25.82562,-72.51635 25.82562,-103.125 0,-125.05305 -92.08898,-226.42774 -217.14202,-226.42774 z"
       id="path4782-1"
       inkscape:connector-curvature="0"
       sodipodi:nodetypes="ssssssscccsscccssssssscc" />
    <circle
       style="fill:#ba00ff;fill-opacity:1;stroke:#ffffff;stroke-opacity:1;stroke-width:20;stroke-miterlimit:4;stroke-dasharray:none"
       id="path6051"
       cx="372.74628"
       cy="332.12341"
       r="188.89853" />
    <ellipse
       style="fill:#ffffff;fill-opacity:1;stroke:none;stroke-width:7.4000001;stroke-miterlimit:4;stroke-dasharray:none;stroke-opacity:1"
       id="path4172"
       cx="362.09653"
       cy="302.24994"
       rx="121.65411"
       ry="92.181206" />
    <ellipse
       style="fill:#ffffff;fill-opacity:1;stroke:none;stroke-width:7.4000001;stroke-miterlimit:4;stroke-dasharray:none;stroke-opacity:1"
       id="path4174"
       cx="485.63184"
       cy="302.87701"
       rx="10.660412"
       ry="20.066658" />
    <ellipse
       style="fill:#ffffff;fill-opacity:1;stroke:none;stroke-width:7.4000001;stroke-miterlimit:4;stroke-dasharray:none;stroke-opacity:1"
       id="path4174-8"
       cx="240.44241"
       cy="297.86032"
       rx="10.660412"
       ry="20.066658" />
    <ellipse
       style="fill:#ffffff;fill-opacity:1;stroke:#ba00ff;stroke-width:9.65404892;stroke-miterlimit:4;stroke-dasharray:none;stroke-opacity:1;opacity:1"
       id="path4191"
       cx="310.85934"
       cy="285.05356"
       rx="8.1520805"
       ry="10.033329" />
    <ellipse
       style="fill:#ffffff;fill-opacity:1;stroke:#ba00ff;stroke-width:9.65404892;stroke-miterlimit:4;stroke-dasharray:none;stroke-opacity:1;opacity:1"
       id="path4191-2"
       cx="404.29477"
       cy="286.30768"
       rx="8.1520805"
       ry="10.033329" />
    <circle
       style="fill:#ffffff;fill-opacity:1;stroke:#ba00ff;stroke-width:6.56253767;stroke-miterlimit:4;stroke-dasharray:none;stroke-opacity:1;opacity:1"
       id="path4208"
       cx="357.23349"
       cy="343.96426"
       r="20.840492" />
    <path
       style="fill:#ba00ff;fill-opacity:1;fill-rule:evenodd;stroke:#ba00ff;stroke-width:0.88682938px;stroke-linecap:butt;stroke-linejoin:miter;stroke-opacity:1;opacity:1"
       d="m 340.3837,234.44086 c 12.15905,-7.62869 39.02049,-0.88684 39.02049,-0.88684 6.13019,3.16526 -7.99861,23.95211 -18.18,23.9444 -10.19071,-0.008 -32.99954,-15.42888 -20.84049,-23.05756 z"
       id="path4210"
       inkscape:connector-curvature="0"
       sodipodi:nodetypes="zssz" />
    <rect
       style="fill:#ffffff;fill-opacity:1;stroke:#ffffff;stroke-width:2.97503519;stroke-linecap:round;stroke-linejoin:round;stroke-miterlimit:4;stroke-dasharray:none;stroke-opacity:1"
       id="rect4212"
       width="41.756462"
       height="76.950851"
       x="597.53424"
       y="-3.3383811"
       transform="matrix(0.78013232,0.62561455,-0.62561455,0.78013232,0,0)" />
    <g
       id="g4273"
       transform="matrix(0.35460942,0.28437331,-0.28437331,0.35460942,1130.3922,397.71163)"
       style="stroke:#ffffff;stroke-width:6.28954315;stroke-linecap:round;stroke-miterlimit:4;stroke-dasharray:none;stroke-opacity:1">
      <g
         id="g4265"
         style="stroke:#ffffff;stroke-width:6.28954315;stroke-linecap:round;stroke-miterlimit:4;stroke-dasharray:none;stroke-opacity:1">
        <path
           style="fill:none;fill-rule:evenodd;stroke:#ffffff;stroke-width:6.28954315;stroke-linecap:round;stroke-linejoin:miter;stroke-miterlimit:4;stroke-dasharray:none;stroke-opacity:1"
           d="m -1174.3275,856.84718 c 5.2936,-12.14593 35.8706,-28.88555 33.9411,-49.49747 -1.0773,-5.87972 -4.024,-9.66514 -5.6568,-13.96536 -1.6328,-4.30022 -2.3519,-7.09389 -1.4143,-13.78859 0.8876,-6.33736 4.5531,-11.35438 18.1111,-14.46446 1.5829,-0.36311 2.2624,-0.208 2.2624,-0.208"
           id="path4214"
           inkscape:connector-curvature="0"
           sodipodi:nodetypes="cczssc" />
        <path
           style="fill:none;fill-rule:evenodd;stroke:#ffffff;stroke-width:6.28954315;stroke-linecap:round;stroke-linejoin:miter;stroke-miterlimit:4;stroke-dasharray:none;stroke-opacity:1"
           d="m -1080.3455,856.83691 c -5.2936,-12.14593 -35.8706,-28.88555 -33.9411,-49.49747 1.0773,-5.87972 4.024,-9.66514 5.6568,-13.96536 1.6328,-4.30022 2.3519,-7.09389 1.4143,-13.78859 -0.8876,-6.33736 -4.5531,-11.35438 -18.1111,-14.46446 -1.5829,-0.36311 -2.2624,-0.208 -2.2624,-0.208"
           id="path4214-8"
           inkscape:connector-curvature="0"
           sodipodi:nodetypes="cczssc" />
      </g>
      <path
         inkscape:connector-curvature="0"
         inkscape:original-d="m -1174.3276,856.84718 94.0452,-0.17678"
         inkscape:path-effect="#path-effect4271"
         id="path4269"
         d="m -1174.3276,856.84718 94.0452,-0.17678"
         style="fill:none;fill-rule:evenodd;stroke:#ffffff;stroke-width:6.28954315;stroke-linecap:round;stroke-linejoin:miter;stroke-miterlimit:4;stroke-dasharray:none;stroke-opacity:1" />
    </g>
    <rect
       style="fill:#ba00ff;fill-opacity:1;stroke:#ba00ff;stroke-width:2.86977267;stroke-miterlimit:4;stroke-dasharray:none;stroke-opacity:1;opacity:1"
       id="rect4279"
       width="23.857231"
       height="0.54844207"
       x="605.62109"
       y="19.355568"
       transform="matrix(0.78013232,0.62561455,-0.62561455,0.78013232,0,0)" />
    <rect
       style="fill:#ba00ff;fill-opacity:1;stroke:#ba00ff;stroke-width:2.86977267;stroke-miterlimit:4;stroke-dasharray:none;stroke-opacity:1;opacity:1"
       id="rect4279-6"
       width="23.857231"
       height="0.54844207"
       x="605.48395"
       y="33.066612"
       transform="matrix(0.78013232,0.62561455,-0.62561455,0.78013232,0,0)" />
    <rect
       style="fill:#ba00ff;fill-opacity:1;stroke:#ba00ff;stroke-width:2.86977267;stroke-miterlimit:4;stroke-dasharray:none;stroke-opacity:1;opacity:1"
       id="rect4279-0"
       width="23.857231"
       height="0.54844207"
       x="606.58087"
       y="47.32608"
       transform="matrix(0.78013232,0.62561455,-0.62561455,0.78013232,0,0)" />
    <path
       style="fill:#ffffff;fill-rule:evenodd;stroke:none;stroke-width:1px;stroke-linecap:butt;stroke-linejoin:miter;stroke-opacity:1;fill-opacity:1"
       d="m 471.817,369.12028 c 0.76427,0.19106 0.70711,-0.0662 0.70711,0.35355 0,0.0589 -0.0417,0.13511 0,0.17678 0.0417,0.0417 0.12407,-0.0264 0.17677,0 0.0745,0.0373 0.11786,0.11785 0.17678,0.17677 0.0589,0.0589 0.13951,0.10224 0.17678,0.17678 0.0263,0.0527 -0.0417,0.13511 0,0.17678 0.0417,0.0417 0.13511,-0.0417 0.17677,0 0.0932,0.0932 0.10369,0.24392 0.17678,0.35355 0.0462,0.0693 0.11785,0.11785 0.17678,0.17678 0.0589,0.0589 0.10224,0.1395 0.17677,0.17677 0.0527,0.0264 0.12408,-0.0263 0.17678,0 0.0745,0.0373 0.10224,0.13951 0.17678,0.17678 0.0527,0.0263 0.13511,-0.0417 0.17677,0 0.0833,0.0833 -0.0833,0.27022 0,0.35355 0.0884,0.0884 0.44195,-0.0884 0.53033,0 0.0417,0.0417 -0.0417,0.13511 0,0.17678 0.0417,0.0417 0.12408,-0.0263 0.17678,0 0.21213,0.10607 0.3182,0.42426 0.53033,0.53033 0.0527,0.0264 0.12407,-0.0263 0.17678,0 0.0745,0.0373 0.10224,0.13951 0.17677,0.17678 0.0527,0.0264 0.13511,-0.0417 0.17678,0 0.0417,0.0417 -0.0417,0.13511 0,0.17677 0.47141,0 -0.0589,-0.0589 0.17678,0.17678 0.0833,0.0833 0.27022,-0.0833 0.35355,0 0.0417,0.0417 -0.0417,0.13511 0,0.17678 0.0417,0.0417 0.13511,-0.0417 0.17678,0 0.0417,0.0417 -0.0417,0.13511 0,0.17677 0.0833,0.0833 0.24814,-0.0527 0.35355,0 0.0745,0.0373 0.10224,0.13951 0.17678,0.17678 0.0527,0.0263 0.13511,-0.0417 0.17678,0 0.0417,0.0417 0,0.11785 0,0.17678 0.0589,0 0.13511,-0.0417 0.17677,0 0.0417,0.0417 -0.0417,0.13511 0,0.17677 0.0833,0.0833 0.27022,-0.0833 0.35356,0 0.0417,0.0417 -0.0417,0.13511 0,0.17678 0.0417,0.0417 0.12407,-0.0264 0.17677,0 0.0745,0.0373 0.10224,0.13951 0.17678,0.17678 0.0527,0.0263 0.12407,-0.0264 0.17678,0 0.75386,0.37693 -0.40032,-0.0234 0.35355,0.35355 0.0527,0.0263 0.13511,-0.0417 0.17678,0 0.0417,0.0417 -0.0417,0.13511 0,0.17678 0.0833,0.0833 0.27022,-0.0833 0.35355,0 0.0417,0.0417 -0.0417,0.13511 0,0.17677 0.0833,0.0833 0.27022,-0.0833 0.35355,0 0.0417,0.0417 -0.0417,0.13511 0,0.17678 0.0417,0.0417 0.11785,0 0.17678,0 0,0.0589 -0.0417,0.13511 0,0.17678 0.0417,0.0417 0.13511,-0.0417 0.17678,0 0.0417,0.0417 -0.0417,0.13511 0,0.17677 0.0417,0.0417 0.11785,0 0.17677,0 0,0.0589 -0.0417,0.13511 0,0.17678 0.0417,0.0417 0.13511,-0.0417 0.17678,0 0.0417,0.0417 -0.0417,0.13511 0,0.17678 0.0417,0.0417 0.12407,-0.0264 0.17678,0 0.14907,0.0745 0.20448,0.27901 0.35355,0.35355 0.0527,0.0264 0.13511,-0.0417 0.17678,0 0.0417,0.0417 -0.0417,0.13511 0,0.17678 0.0417,0.0417 0.13511,-0.0417 0.17677,0 0.0417,0.0417 -0.0417,0.13511 0,0.17677 0.0417,0.0417 0.13511,-0.0417 0.17678,0 0.0417,0.0417 -0.0417,0.13511 0,0.17678 0.0417,0.0417 0.13511,-0.0417 0.17678,0 0.0417,0.0417 -0.0417,0.13511 0,0.17678 0.0417,0.0417 0.13511,-0.0417 0.17677,0 0.36576,0.36575 -0.55892,-0.0143 0.17678,0.35355 0.0527,0.0263 0.12407,-0.0264 0.17678,0 0.0745,0.0373 0.10224,0.13951 0.17677,0.17678 0.0527,0.0264 0.12407,-0.0264 0.17678,0 0.0745,0.0373 0.10224,0.13951 0.17678,0.17677 0.10541,0.0527 0.27022,-0.0833 0.35355,0 0.0417,0.0417 -0.0417,0.13511 0,0.17678 0.0417,0.0417 0.13511,-0.0417 0.17678,0 0.0417,0.0417 -0.0417,0.13511 0,0.17678 0.0417,0.0417 0.12407,-0.0264 0.17677,0 0.0745,0.0373 0.10224,0.13951 0.17678,0.17677 0.0527,0.0264 0.13511,-0.0417 0.17678,0 0.0417,0.0417 -0.0417,0.13511 0,0.17678 0.0417,0.0417 0.12407,-0.0264 0.17677,0 0.0745,0.0373 0.10224,0.13951 0.17678,0.17678 0.0527,0.0263 0.13511,-0.0417 0.17678,0 0.0417,0.0417 -0.0417,0.13511 0,0.17677 0.0833,0.0833 0.27022,-0.0833 0.35355,0 0.0417,0.0417 -0.0417,0.13511 0,0.17678 0.0417,0.0417 0.13511,-0.0417 0.17678,0 0.0417,0.0417 0,0.11785 0,0.17678 0.0589,0 0.13511,-0.0417 0.17677,0 0.0417,0.0417 -0.0417,0.13511 0,0.17677 0.0417,0.0417 0.13511,-0.0417 0.17678,0 0,0.47141 -0.0589,-0.0589 0.17678,0.17678 0.0417,0.0417 -0.0417,0.13511 0,0.17678 0.0417,0.0417 0.13511,-0.0417 0.17677,0 0.0417,0.0417 -0.0417,0.13511 0,0.17677 0.0833,0.0833 0.27022,-0.0833 0.35356,0 0.0417,0.0417 -0.0417,0.13511 0,0.17678 0.0417,0.0417 0.13511,-0.0417 0.17677,0 0.0833,0.0833 -0.0833,0.27022 0,0.35355 0.0417,0.0417 0.12408,-0.0264 0.17678,0 0.58629,0.5863 -0.16667,-0.0833 0.35355,0.17678 0.14907,0.0745 0.20449,0.27902 0.35356,0.35355 0.0527,0.0264 0.13511,-0.0417 0.17677,0 0.0417,0.0417 -0.0417,0.13511 0,0.17678 0.0833,0.0833 0.27022,-0.0833 0.35356,0 0.0417,0.0417 -0.0417,0.13511 0,0.17678 0.0417,0.0417 0.13511,-0.0417 0.17677,0 0.0417,0.0417 -0.0417,0.13511 0,0.17677 0.0417,0.0417 0.12408,-0.0264 0.17678,0 0.0469,0.0235 0.50686,0.4834 0.53033,0.53033 0.0263,0.0527 -0.0417,0.13511 0,0.17678 0.0417,0.0417 0.13511,-0.0417 0.17678,0 0.0417,0.0417 -0.0417,0.13511 0,0.17678 0.0417,0.0417 0.13511,-0.0417 0.17677,0 0.0417,0.0417 -0.0417,0.13511 0,0.17677 0.0417,0.0417 0.13511,-0.0417 0.17678,0 0.0833,0.0833 -0.0833,0.27022 0,0.35356 0.0417,0.0417 0.13511,-0.0417 0.17678,0 0.0417,0.0417 -0.0417,0.13511 0,0.17677 0.0833,0.0833 0.27022,-0.0833 0.35355,0 0.0417,0.0417 -0.0417,0.13511 0,0.17678 0.0417,0.0417 0.13511,-0.0417 0.17678,0 0.0417,0.0417 -0.0417,0.13511 0,0.17678 0.0417,0.0417 0.12407,-0.0263 0.17677,0 0.14908,0.0745 0.20449,0.27902 0.35356,0.35355 0.0527,0.0264 0.13511,-0.0417 0.17677,0 0.0417,0.0417 -0.0417,0.13511 0,0.17678 0.0833,0.0833 0.27022,-0.0833 0.35356,0 0.0833,0.0833 -0.0833,0.27022 0,0.35355 0.0417,0.0417 0.12407,-0.0263 0.17677,0 0.0745,0.0373 0.10225,0.13951 0.17678,0.17678 0.0527,0.0264 0.12407,-0.0263 0.17678,0 0.25139,0.12569 0.10216,0.22786 0.35355,0.35355 0.0527,0.0264 0.12407,-0.0263 0.17678,0 0.7357,0.36785 -0.18898,-0.0122 0.17677,0.35356 0.0417,0.0417 0.13511,-0.0417 0.17678,0 0.0417,0.0417 -0.0417,0.13511 0,0.17677 0.0417,0.0417 0.13511,-0.0417 0.17678,0 0.0417,0.0417 -0.0417,0.13511 0,0.17678 0.0417,0.0417 0.13511,-0.0417 0.17677,0 0.0417,0.0417 -0.0417,0.13511 0,0.17678 0.0417,0.0417 0.13511,-0.0417 0.17678,0 0.36576,0.36575 -0.55892,-0.0143 0.17678,0.35355 0.0527,0.0263 0.13511,-0.0417 0.17677,0 0.0417,0.0417 -0.0417,0.13511 0,0.17678 0.0417,0.0417 0.13511,-0.0417 0.17678,0 0.0417,0.0417 -0.0417,0.13511 0,0.17677 0.0417,0.0417 0.13511,-0.0417 0.17678,0 0.0833,0.0833 -0.0833,0.27022 0,0.35356 0.0417,0.0417 0.13511,-0.0417 0.17677,0 0.0833,0.0833 -0.0833,0.27022 0,0.35355 0.0417,0.0417 0.13511,-0.0417 0.17678,0 0.0833,0.0833 -0.0833,0.27022 0,0.35355 0.0417,0.0417 0.13511,-0.0417 0.17678,0 0.0833,0.0833 -0.0833,0.27022 0,0.35356 0.0417,0.0417 0.13511,-0.0417 0.17677,0 0.0833,0.0833 -0.0833,0.27022 0,0.35355 0.0417,0.0417 0.13511,-0.0417 0.17678,0 0.0417,0.0417 -0.0417,0.13511 0,0.17678 0.0417,0.0417 0.11785,0 0.17678,0 0,0.0589 -0.0417,0.13511 0,0.17677 0.0417,0.0417 0.13511,-0.0417 0.17677,0 0.0833,0.0833 -0.0833,0.27022 0,0.35356 0.0417,0.0417 0.13511,-0.0417 0.17678,0 0.0417,0.0417 -0.0417,0.13511 0,0.17677 0.0417,0.0417 0.13511,-0.0417 0.17678,0 0.0417,0.0417 -0.0417,0.13511 0,0.17678 0.0417,0.0417 0.13511,-0.0417 0.17677,0 0.0417,0.0417 -0.0417,0.13511 0,0.17678 0.0417,0.0417 0.13511,-0.0417 0.17678,0 0.0417,0.0417 -0.0417,0.13511 0,0.17677 0.0833,0.0833 0.27022,-0.0833 0.35355,0 0.0417,0.0417 -0.0417,0.13511 0,0.17678 0.0833,0.0833 0.27022,-0.0833 0.35356,0 0.0417,0.0417 -0.0417,0.13511 0,0.17678 0.0417,0.0417 0.11785,0 0.17677,0 0,0.0589 -0.0417,0.13511 0,0.17677 0.0417,0.0417 0.13511,-0.0417 0.17678,0 0.0417,0.0417 -0.0417,0.13511 0,0.17678 0.0833,0.0833 0.27022,-0.0833 0.35355,0 0.0417,0.0417 -0.0417,0.13511 0,0.17678 0.0833,0.0833 0.27023,-0.0833 0.35356,0 0.0417,0.0417 -0.0417,0.13511 0,0.17677 0.0833,0.0833 0.27022,-0.0833 0.35355,0 0.0417,0.0417 -0.0417,0.13511 0,0.17678 0.0884,0.0884 0.44194,-0.0884 0.53033,0 0.0417,0.0417 -0.0417,0.13511 0,0.17678 0.0417,0.0417 0.12407,-0.0264 0.17678,0 0.0745,0.0373 0.10224,0.1395 0.17678,0.17677 0.0527,0.0263 0.12087,-0.0186 0.17677,0 0.125,0.0417 0.22856,0.13511 0.35356,0.17678 0.1118,0.0373 0.27022,-0.0833 0.35355,0 0.0417,0.0417 -0.0417,0.13511 0,0.17678 0.0417,0.0417 0.13511,-0.0417 0.17678,0 0.0417,0.0417 -0.0417,0.13511 0,0.17677 0.0833,0.0833 0.24814,-0.0527 0.35355,0 0.0745,0.0373 0.10224,0.13951 0.17678,0.17678 0.1054,0.0527 0.24814,-0.0527 0.35355,0 0.0745,0.0373 0.10224,0.13951 0.17678,0.17678 0.1054,0.0527 0.27022,-0.0833 0.35355,0 0.0417,0.0417 -0.0417,0.13511 0,0.17677 0.0833,0.0833 0.27022,-0.0833 0.35355,0 0.0417,0.0417 -0.0417,0.13511 0,0.17678 0.0884,0.0884 0.44194,-0.0884 0.53033,0 0.0417,0.0417 -0.0417,0.13511 0,0.17678 0.0833,0.0833 0.35356,-0.11785 0.35356,0 0,0.0589 -0.23571,0 -0.17678,0 1.00173,0 0.0589,-0.11785 0.35355,0.17677 0.0425,0.0425 0.66457,-0.0425 0.70711,0 0.0417,0.0417 -0.0417,0.13511 0,0.17678 0.0417,0.0417 0.13511,0.0417 0.17678,0 0.0417,-0.0417 -0.0417,-0.13511 0,-0.17678 0.0417,-0.0417 0.13511,0.0417 0.17677,0 0.0833,-0.0833 -0.0833,-0.27022 0,-0.35355 0.0417,-0.0417 0.13511,0.0417 0.17678,0 0.007,-0.007 0,-0.64219 0,-0.70711 0,-0.0589 0.0417,-0.13511 0,-0.17677 -0.0417,-0.0417 -0.13511,0.0417 -0.17678,0 -0.0833,-0.0833 0.0833,-0.27022 0,-0.35356 -0.0417,-0.0417 -0.13511,0.0417 -0.17677,0 -0.0833,-0.0833 0.0833,-0.27022 0,-0.35355 -0.0417,-0.0417 -0.13511,0.0417 -0.17678,0 -0.008,-0.008 0,-0.80053 0,-0.88388 0,-0.0649 0.007,-0.7 0,-0.70711 -0.0417,-0.0417 -0.13511,0.0417 -0.17678,0 -0.007,-0.007 0,-0.64219 0,-0.70711 0,-0.0833 0.008,-0.87587 0,-0.88388 -0.0417,-0.0417 -0.13511,0.0417 -0.17677,0 -0.0425,-0.0425 0.0425,-0.66457 0,-0.70711 -0.0417,-0.0417 -0.13511,0.0417 -0.17678,0 -0.0425,-0.0425 0.0425,-0.66457 0,-0.7071 -0.0417,-0.0417 -0.13511,0.0417 -0.17678,0 -0.0417,-0.0417 0,-0.11786 0,-0.17678 0,-0.0589 0,-0.11785 0,-0.17678 0,-0.82496 0,-1.64991 0,-2.47487 0,-0.47141 0.0589,0.0589 -0.17677,-0.17678 -0.0417,-0.0417 0,-0.11785 0,-0.17678 0,-0.0833 -0.008,-0.87587 0,-0.88388 0.0417,-0.0417 0.13511,0.0417 0.17677,0 0.0547,-0.0547 -0.0547,-0.82914 0,-0.88388 0.0417,-0.0417 0.13511,0.0417 0.17678,0 0.0833,-0.0833 -0.0833,-0.27022 0,-0.35356 0.0417,-0.0417 0.13511,0.0417 0.17678,0 0.0361,-0.0361 -0.0351,-0.46024 0,-0.53033 0.0373,-0.0745 0.1395,-0.10224 0.17677,-0.17677 0.035,-0.0701 -0.0361,-0.49419 0,-0.53033 0.0417,-0.0417 0.13511,0.0417 0.17678,0 0.0417,-0.0417 0,-0.11785 0,-0.17678 0,-0.35355 0,-0.70711 0,-1.06066 0,-0.0589 0,-0.11785 0,-0.17678 0,-0.0589 -0.0417,-0.13511 0,-0.17677 0.0417,-0.0417 0.13511,0.0417 0.17678,0 0.0547,-0.0547 -0.0547,-0.82915 0,-0.88389 0.0417,-0.0417 0.13511,0.0417 0.17677,0 0.0417,-0.0417 0,-0.11785 0,-0.17677 0,-0.47141 0,-0.94281 0,-1.41422 0,-0.0649 0.007,-0.69999 0,-0.7071 -0.0417,-0.0417 -0.13511,0.0417 -0.17677,0 -0.0417,-0.0417 0,-0.11785 0,-0.17678 0,-0.0589 0,-0.11785 0,-0.17678 0,-0.88388 0,-1.76776 0,-2.65165 0,-0.0833 -0.008,-0.87587 0,-0.88388 0.0417,-0.0417 0.13511,0.0417 0.17677,0 0.0833,-0.0833 -0.0833,-0.27022 0,-0.35355 0.0417,-0.0417 0.13511,0.0417 0.17678,0 0.0833,-0.0833 -0.0833,-0.27022 0,-0.35356 0.0417,-0.0417 0.13511,0.0417 0.17678,0 0.0833,-0.0833 -0.0527,-0.24814 0,-0.35355 0.0373,-0.0745 0.1395,-0.10224 0.17677,-0.17678 0.0264,-0.0527 -0.0417,-0.13511 0,-0.17677 0.0417,-0.0417 0.13511,0.0417 0.17678,0 0.0417,-0.0417 -0.0264,-0.12408 0,-0.17678 0.36785,-0.7357 -0.0122,0.18898 0.35355,-0.17678 0.0833,-0.0833 -0.0833,-0.27022 0,-0.35355 0.0417,-0.0417 0.13511,0.0417 0.17678,0 0.0417,-0.0417 0,-0.11785 0,-0.17678 0.0589,0 0.13511,0.0417 0.17678,0 0.0417,-0.0417 -0.0417,-0.13511 0,-0.17677 0.0417,-0.0417 0.13511,0.0417 0.17677,0 0.0417,-0.0417 -0.0417,-0.13511 0,-0.17678 0.0417,-0.0417 0.13511,0.0417 0.17678,0 0.0833,-0.0833 -0.0833,-0.27022 0,-0.35355 0.0417,-0.0417 0.12407,0.0263 0.17678,0 0.0745,-0.0373 0.10224,-0.13951 0.17677,-0.17678 0.0527,-0.0263 0.12408,0.0263 0.17678,0 0.7357,-0.36785 -0.18898,0.0122 0.17678,-0.35355 0.0833,-0.0833 0.27022,0.0833 0.35355,0 0.0417,-0.0417 -0.0417,-0.13511 0,-0.17678 0.0833,-0.0833 0.27022,0.0833 0.35355,0 0.0417,-0.0417 -0.0417,-0.13511 0,-0.17678 0.0361,-0.0361 0.46024,0.0351 0.53033,0 0.0745,-0.0373 0.10224,-0.13951 0.17678,-0.17677 0.0527,-0.0264 0.13511,0.0417 0.17678,0 0.0417,-0.0417 -0.0417,-0.13511 0,-0.17678 0.0833,-0.0833 0.27022,0.0833 0.35355,0 0.0417,-0.0417 -0.0417,-0.13511 0,-0.17678 0.0417,-0.0417 0.13511,0.0417 0.17678,0 0.0417,-0.0417 -0.0417,-0.13511 0,-0.17677 0.0833,-0.0833 0.27022,0.0833 0.35355,0 0.0417,-0.0417 -0.0417,-0.13511 0,-0.17678 0.0833,-0.0833 0.27022,0.0833 0.35355,0 0.0417,-0.0417 -0.0417,-0.13511 0,-0.17678 0.0417,-0.0417 0.13511,0.0417 0.17678,0 0.0417,-0.0417 -0.0417,-0.13511 0,-0.17677 0.0833,-0.0833 0.24814,0.0527 0.35355,0 0.21214,-0.10607 0.3182,-0.42427 0.53033,-0.53033 0.0527,-0.0264 0.13511,0.0417 0.17678,0 0.0417,-0.0417 -0.0417,-0.13511 0,-0.17678 0.0417,-0.0417 0.13511,0.0417 0.17678,0 0.0417,-0.0417 -0.0417,-0.13511 0,-0.17678 0.0833,-0.0833 0.27022,0.0833 0.35355,0 0.0417,-0.0417 -0.0417,-0.13511 0,-0.17678 0.0417,-0.0417 0.13511,0.0417 0.17678,0 0.0417,-0.0417 -0.0417,-0.13511 0,-0.17677 0.0417,-0.0417 0.13511,0.0417 0.17677,0 0.0417,-0.0417 -0.0417,-0.13511 0,-0.17678 0.0833,-0.0833 0.27022,0.0833 0.35356,0 0.0417,-0.0417 -0.0417,-0.13511 0,-0.17678 0.0833,-0.0833 0.27022,0.0833 0.35355,0 0.0417,-0.0417 -0.0417,-0.13511 0,-0.17677 0.0833,-0.0833 0.27022,0.0833 0.35355,0 0.0417,-0.0417 -0.0417,-0.13511 0,-0.17678 0.0417,-0.0417 0.13511,0.0417 0.17678,0 0.0417,-0.0417 -0.0417,-0.13511 0,-0.17678 0.0833,-0.0833 0.27022,0.0833 0.35355,0 0.0417,-0.0417 -0.0417,-0.13511 0,-0.17677 0.0833,-0.0833 0.27022,0.0833 0.35356,0 0.0417,-0.0417 -0.0417,-0.13511 0,-0.17678 0.0833,-0.0833 0.27022,0.0833 0.35355,0 0.0417,-0.0417 -0.0417,-0.13511 0,-0.17678 0.0417,-0.0417 0.13511,0.0417 0.17678,0 0.0417,-0.0417 -0.0417,-0.13511 0,-0.17677 0.0417,-0.0417 0.12407,0.0263 0.17677,0 0.0745,-0.0373 0.10225,-0.13951 0.17678,-0.17678 0.0527,-0.0263 0.12407,0.0263 0.17678,0 0.58629,-0.58629 -0.16667,0.0833 0.35355,-0.17678 0.0745,-0.0373 0.10224,-0.1395 0.17678,-0.17677 0.0527,-0.0264 0.13511,0.0417 0.17677,0 0.0417,-0.0417 -0.0263,-0.12407 0,-0.17678 0.0373,-0.0745 0.13951,-0.10224 0.17678,-0.17678 0.0263,-0.0527 -0.0417,-0.13511 0,-0.17677 0.0417,-0.0417 0.13511,0.0417 0.17678,0 0.0833,-0.0833 -0.0833,-0.27022 0,-0.35356 0.0417,-0.0417 0.13511,0.0417 0.17677,0 0.0417,-0.0417 -0.0417,-0.13511 0,-0.17677 0.0417,-0.0417 0.13511,0.0417 0.17678,0 0.0833,-0.0833 -0.0833,-0.27022 0,-0.35356 0.0417,-0.0417 0.13511,0.0417 0.17678,0 0.0833,-0.0833 -0.0833,-0.27022 0,-0.35355 0.0417,-0.0417 0.13511,0.0417 0.17677,0 0.0833,-0.0833 -0.0833,-0.27022 0,-0.35355 0.0417,-0.0417 0.13511,0.0417 0.17678,0 0.0417,-0.0417 -0.0417,-0.13511 0,-0.17678 0.0417,-0.0417 0.13511,0.0417 0.17678,0 0.0417,-0.0417 -0.0417,-0.13511 0,-0.17678 0.0417,-0.0417 0.13511,0.0417 0.17677,0 0.0417,-0.0417 -0.0417,-0.13511 0,-0.17677 0.0417,-0.0417 0.13511,0.0417 0.17678,0 0.0417,-0.0417 -0.0417,-0.13511 0,-0.17678 0.0417,-0.0417 0.13511,0.0417 0.17678,0 0.0833,-0.0833 -0.0833,-0.27022 0,-0.35355 0.0417,-0.0417 0.13511,0.0417 0.17677,0 0.0833,-0.0833 -0.0833,-0.27022 0,-0.35356 0.0417,-0.0417 0.13511,0.0417 0.17678,0 0.0547,-0.0547 -0.0547,-0.82914 0,-0.88388 0.0417,-0.0417 0.13511,0.0417 0.17678,0 0.007,-0.007 0,-0.64219 0,-0.70711 0,-0.4714 0,-0.94281 0,-1.41421 0,-0.0924 0.0232,-0.66062 0,-0.70711 -0.0373,-0.0745 -0.13951,-0.10224 -0.17678,-0.17677 -0.0527,-0.10541 0.0833,-0.27022 0,-0.35356 -0.0417,-0.0417 -0.13511,0.0417 -0.17678,0 -0.008,-0.008 0,-0.80053 0,-0.88388 0,-0.0589 0.0417,-0.13511 0,-0.17678 -0.0417,-0.0417 -0.13511,0.0417 -0.17677,0 -0.0833,-0.0833 0.0833,-0.27022 0,-0.35355 -0.0417,-0.0417 -0.13511,0.0417 -0.17678,0 -0.0425,-0.0425 0.0425,-0.66457 0,-0.70711 -0.0417,-0.0417 -0.13511,0.0417 -0.17678,0 -0.0833,-0.0833 0.0833,-0.27022 0,-0.35355 -0.0417,-0.0417 -0.13511,0.0417 -0.17677,0 -0.0833,-0.0833 0.0833,-0.27022 0,-0.35355 -0.0417,-0.0417 -0.13511,0.0417 -0.17678,0 -0.0833,-0.0833 0.0833,-0.27022 0,-0.35356 -0.0417,-0.0417 -0.13511,0.0417 -0.17678,0 -0.0833,-0.0833 0.0833,-0.27022 0,-0.35355 -0.0417,-0.0417 -0.13511,0.0417 -0.17677,0 -0.0417,-0.0417 0.0417,-0.13511 0,-0.17678 -0.0417,-0.0417 -0.13511,0.0417 -0.17678,0 -0.0417,-0.0417 0.0417,-0.13511 0,-0.17677 -0.0417,-0.0417 -0.13511,0.0417 -0.17678,0 -0.0417,-0.0417 0.0264,-0.12408 0,-0.17678 -0.0373,-0.0745 -0.11785,-0.11785 -0.17677,-0.17678 -0.0589,-0.0589 -0.10744,-0.13055 -0.17678,-0.17677 -0.11785,-0.0589 -0.2357,-0.11786 -0.35355,-0.17678 -0.0589,0 -0.12407,0.0263 -0.17678,0 -0.7357,-0.36785 0.18898,0.0122 -0.17678,-0.35355 -0.0417,-0.0417 -0.13511,0.0417 -0.17677,0 -0.0417,-0.0417 0.0417,-0.13511 0,-0.17678 -0.0417,-0.0417 -0.13511,0.0417 -0.17678,0 -0.0417,-0.0417 0.0417,-0.13511 0,-0.17678 -0.0417,-0.0417 -0.13511,0.0417 -0.17678,0 -0.0417,-0.0417 0.0417,-0.13511 0,-0.17677 -0.0417,-0.0417 -0.13511,0.0417 -0.17677,0 -0.0417,-0.0417 0.0417,-0.13511 0,-0.17678 -0.0417,-0.0417 -0.13511,0.0417 -0.17678,0 -0.0417,-0.0417 0.0417,-0.13511 0,-0.17678 -0.0417,-0.0417 -0.13511,0.0417 -0.17678,0 -0.0417,-0.0417 0.0417,-0.13511 0,-0.17677 -0.0417,-0.0417 -0.13511,0.0417 -0.17677,0 -0.0417,-0.0417 0.0417,-0.13511 0,-0.17678 -0.0417,-0.0417 -0.11785,0 -0.17678,0 0,-0.0589 0.0417,-0.13511 0,-0.17678 -0.0417,-0.0417 -0.13511,0.0417 -0.17678,0 -0.0417,-0.0417 0.0417,-0.13511 0,-0.17677 -0.0833,-0.0833 -0.27022,0.0833 -0.35355,0 -0.0417,-0.0417 0.0417,-0.13511 0,-0.17678 -0.0884,-0.0884 -0.44194,0.0884 -0.53033,0 -0.0417,-0.0417 0.0417,-0.13511 0,-0.17678 -0.0361,-0.0361 -0.46024,0.0351 -0.53033,0 -0.0745,-0.0373 -0.10224,-0.13951 -0.17678,-0.17677 -0.10541,-0.0527 -0.24814,0.0527 -0.35355,0 -0.0745,-0.0373 -0.10224,-0.13951 -0.17678,-0.17678 -0.0701,-0.0351 -0.49419,0.0361 -0.53033,0 -0.0417,-0.0417 0.0417,-0.13511 0,-0.17678 -0.0547,-0.0547 -0.82914,0.0547 -0.88388,0 -0.0417,-0.0417 0.0417,-0.13511 0,-0.17677 -0.0417,-0.0417 -0.11785,0 -0.17678,0 -0.0589,0 -0.11785,0 -0.17677,0 -0.41248,0 -0.82496,0 -1.23744,0 -0.17678,0 -0.36262,0.0559 -0.53033,0 -0.0791,-0.0264 -0.10224,-0.13951 -0.17678,-0.17678 -0.0197,-0.01 -0.86415,-0.01 -0.88388,0 -0.0745,0.0373 -0.10224,0.13951 -0.17678,0.17678 -0.0959,0.0479 -0.65873,-0.0484 -0.7071,0 -0.0417,0.0417 0.0417,0.13511 0,0.17677 -0.0417,0.0417 -0.11785,0 -0.17678,0 0,0.0589 0.0417,0.13511 0,0.17678 -0.0833,0.0833 -0.27022,-0.0833 -0.35355,0 -0.0417,0.0417 0.0417,0.13511 0,0.17678 -0.0833,0.0833 -0.27022,-0.0833 -0.35356,0 -0.0417,0.0417 0.0417,0.13511 0,0.17677 -0.0833,0.0833 -0.27022,-0.0833 -0.35355,0 -0.0417,0.0417 0.0417,0.13511 0,0.17678 -0.0884,0.0884 -0.44194,-0.0884 -0.53033,0 -0.0417,0.0417 0.0417,0.13511 0,0.17678 -0.0833,0.0833 -0.27022,-0.0833 -0.35355,0 -0.0417,0.0417 0.0417,0.13511 0,0.17677 -0.0884,0.0884 -0.44195,-0.0884 -0.53033,0 -0.0417,0.0417 0.0417,0.13511 0,0.17678 -0.0417,0.0417 -0.13511,-0.0417 -0.17678,0 -0.0417,0.0417 0.0417,0.13511 0,0.17678 -0.0417,0.0417 -0.13511,-0.0417 -0.17678,0 -0.0417,0.0417 0.0417,0.13511 0,0.17677 -0.0417,0.0417 -0.13511,-0.0417 -0.17677,0 -0.0417,0.0417 0.0417,0.13511 0,0.17678 -0.0417,0.0417 -0.13511,-0.0417 -0.17678,0 -0.0417,0.0417 0.0417,0.13511 0,0.17678 -0.0417,0.0417 -0.13511,-0.0417 -0.17678,0 -0.0417,0.0417 0.0417,0.13511 0,0.17677 -0.0417,0.0417 -0.13511,-0.0417 -0.17677,0 -0.0833,0.0833 0.0833,0.27022 0,0.35356 -0.0417,0.0417 -0.13511,-0.0417 -0.17678,0 -0.0884,0.0884 0.0884,0.44194 0,0.53033 -0.0417,0.0417 -0.13511,-0.0417 -0.17678,0 -0.0833,0.0833 0.0833,0.27022 0,0.35355 -0.0417,0.0417 -0.13511,-0.0417 -0.17677,0 -0.0417,0.0417 0.0263,0.12407 0,0.17678 -0.0373,0.0745 -0.13951,0.10224 -0.17678,0.17677 -0.0351,0.0701 0.0361,0.49419 0,0.53033 -0.0417,0.0417 -0.13511,-0.0417 -0.17678,0 -0.0833,0.0833 0.0833,0.27022 0,0.35356 -0.0417,0.0417 -0.13511,-0.0417 -0.17677,0 -0.0547,0.0547 0.0547,0.82914 0,0.88388 -0.0417,0.0417 -0.13511,-0.0417 -0.17678,0 -0.0833,0.0833 0.0833,0.27022 0,0.35355 -0.0417,0.0417 -0.13511,-0.0417 -0.17678,0 -0.0417,0.0417 0.0417,0.13511 0,0.17678 -0.0417,0.0417 -0.13511,-0.0417 -0.17677,0 -0.0884,0.0884 0.0884,0.44194 0,0.53033 -0.0417,0.0417 -0.13511,-0.0417 -0.17678,0 -0.0833,0.0833 0.0833,0.27022 0,0.35355 -0.0417,0.0417 -0.13511,-0.0417 -0.17678,0 -0.0417,0.0417 0.0263,0.12408 0,0.17678 -0.0373,0.0745 -0.13951,0.10224 -0.17677,0.17678 -0.0264,0.0527 0.0417,0.13511 0,0.17677 -0.0417,0.0417 -0.13511,-0.0417 -0.17678,0 -0.0833,0.0833 0.0833,0.27022 0,0.35356 -0.0417,0.0417 -0.13511,-0.0417 -0.17678,0 -0.0884,0.0884 0.0884,0.44194 0,0.53033 -0.0417,0.0417 -0.13511,-0.0417 -0.17677,0 -0.0833,0.0833 0.0833,0.27022 0,0.35355 -0.0417,0.0417 -0.13511,-0.0417 -0.17678,0 -0.0833,0.0833 0.0527,0.24814 0,0.35355 -0.0373,0.0745 -0.13951,0.10224 -0.17678,0.17678 -0.0263,0.0527 0.0417,0.13511 0,0.17678 -0.0417,0.0417 -0.13511,-0.0417 -0.17677,0 -0.0417,0.0417 0,0.11785 0,0.17677 0,0.0589 0,0.11785 0,0.17678 0,0.4714 0.0589,-0.0589 -0.17678,0.17678 -0.0425,0.0425 0.0425,0.66457 0,0.7071 -0.0417,0.0417 -0.13511,-0.0417 -0.17678,0 -0.0425,0.0425 0.0425,0.66457 0,0.70711 -0.0417,0.0417 -0.13511,-0.0417 -0.17677,0 -0.0884,0.0884 0.0884,0.44194 0,0.53033 -0.0417,0.0417 -0.13511,-0.0417 -0.17678,0 -0.0833,0.0833 0.0833,0.27022 0,0.35355 -0.0417,0.0417 -0.13511,-0.0417 -0.17678,0 -0.0833,0.0833 0.0527,0.24815 0,0.35356 -0.0373,0.0745 -0.13951,0.10224 -0.17678,0.17677 -0.0527,0.10541 0.0833,0.27022 0,0.35356 -0.0417,0.0417 -0.13511,-0.0417 -0.17677,0 -0.0833,0.0833 0.0833,0.27022 0,0.35355 -0.0417,0.0417 -0.13511,-0.0417 -0.17678,0 -0.0417,0.0417 0.0417,0.13511 0,0.17678 -0.0417,0.0417 -0.13511,-0.0417 -0.17678,0 -0.0417,0.0417 0.0417,0.13511 0,0.17677 -0.0417,0.0417 -0.12407,-0.0264 -0.17677,0 -0.0745,0.0373 -0.10224,0.13951 -0.17678,0.17678 -0.0527,0.0263 -0.13511,-0.0417 -0.17678,0 -0.0417,0.0417 0.0417,0.13511 0,0.17678 -0.0417,0.0417 -0.13511,-0.0417 -0.17677,0 0,0.4714 0.0589,-0.0589 -0.17678,0.17677 -0.0417,0.0417 0.0417,0.13511 0,0.17678 -0.0417,0.0417 -0.13511,-0.0417 -0.17678,0 -0.0417,0.0417 0.0417,0.13511 0,0.17678 -0.0417,0.0417 -0.11785,0 -0.17677,0 0,0.0589 0.0417,0.13511 0,0.17677 -0.0833,0.0833 -0.27022,-0.0833 -0.35356,0 -0.0417,0.0417 0.0417,0.13511 0,0.17678 -0.0833,0.0833 -0.27022,-0.0833 -0.35355,0 -0.0417,0.0417 0.0417,0.13511 0,0.17678 -0.0833,0.0833 -0.27022,-0.0833 -0.35355,0 -0.0833,0.0833 0.10541,0.30085 0,0.35355 -0.10541,0.0527 -0.24175,-0.0373 -0.35356,0 -0.0791,0.0263 -0.10224,0.13951 -0.17677,0.17678 -0.10541,0.0527 -0.27022,-0.0833 -0.35356,0 -0.0417,0.0417 -0.0589,0.17677 0,0.17677 0.0833,0 0.26011,-0.17677 0.17678,-0.17677 -0.89304,0 -0.13586,0.13586 -0.35355,0.35355 -0.0884,0.0884 -0.44194,-0.0884 -0.53033,0 -0.0417,0.0417 0.0417,0.13511 0,0.17678 -0.008,0.008 -0.80054,0 -0.88389,0 -0.0429,0 -0.52464,-0.006 -0.53033,0 -0.0417,0.0417 0.0417,0.13511 0,0.17677 -0.0361,0.0361 -0.46024,-0.035 -0.53033,0 -0.0745,0.0373 -0.10224,0.13951 -0.17677,0.17678 -0.0701,0.0351 -0.49419,-0.0361 -0.53033,0 -0.0417,0.0417 0.0417,0.13511 0,0.17678 -0.0547,0.0547 -0.82915,-0.0547 -0.88389,0 -0.0417,0.0417 0.0417,0.13511 0,0.17677 -0.0833,0.0833 -0.27022,-0.0833 -0.35355,0 -0.0417,0.0417 0.0417,0.13511 0,0.17678 -0.0884,0.0884 -0.44194,-0.0884 -0.53033,0 -0.0417,0.0417 0.0417,0.13511 0,0.17678 -0.0833,0.0833 -0.27022,-0.0833 -0.35355,0 -0.0417,0.0417 0.0417,0.13511 0,0.17677 -0.0621,0.0621 -0.76178,-0.0611 -0.88389,0 -0.0745,0.0373 -0.10224,0.13951 -0.17677,0.17678 -0.0701,0.035 -0.49419,-0.0361 -0.53033,0 -0.0417,0.0417 0.0417,0.13511 0,0.17678 -0.0425,0.0425 -0.66457,-0.0425 -0.70711,0 -0.0417,0.0417 0.0417,0.13511 0,0.17678 -0.0833,0.0833 -0.24814,-0.0527 -0.35355,0 -0.0745,0.0373 -0.10224,0.1395 -0.17678,0.17677 -0.10541,0.0527 -0.27022,-0.0833 -0.35355,0 -0.0417,0.0417 0.0417,0.13511 0,0.17678 -0.007,0.007 -0.64219,0 -0.70711,0 -0.0429,0 -0.52465,-0.006 -0.53033,0 -0.0417,0.0417 0.0417,0.13511 0,0.17678 -0.0547,0.0547 -0.82915,-0.0547 -0.88388,0 -0.0417,0.0417 0.0417,0.13511 0,0.17677 -0.0417,0.0417 -0.11786,0 -0.17678,0 -0.29463,0 -0.58926,0 -0.88388,0 -0.88389,0 -1.76777,0 -2.65165,0 -0.0589,0 -0.11786,0 -0.17678,0 -0.0589,0 -0.13511,-0.0417 -0.17678,0 -0.0417,0.0417 0.0417,0.13511 0,0.17678 -0.0547,0.0547 -0.82914,-0.0547 -0.88388,0 -0.0417,0.0417 0.0417,0.13511 0,0.17678 -0.008,0.008 -0.80054,0 -0.88389,0 -0.4714,0 -0.9428,0 -1.41421,0 -0.0589,0 -0.13511,-0.0417 -0.17678,0 -0.0417,0.0417 0.0417,0.13511 0,0.17677 -0.0417,0.0417 -0.11785,0 -0.17677,0 -0.0589,0 -0.11785,0 -0.17678,0 -0.41248,0 -0.82496,0 -1.23744,0 -0.0589,0 -0.13511,-0.0417 -0.17677,0 -0.0417,0.0417 0.0417,0.13511 0,0.17678 -0.0417,0.0417 -0.13511,-0.0417 -0.17678,0 -0.0417,0.0417 0.0417,0.13511 0,0.17678 -0.36576,0.36575 0.0143,-0.55893 -0.35355,0.17677 -0.0263,0.0527 0.0417,0.13511 0,0.17678 -0.0833,0.0833 -0.27022,-0.0833 -0.35356,0 -0.0417,0.0417 0.0417,0.13511 0,0.17678 -0.4714,0 0.0589,-0.0589 -0.17677,0.17677 -0.0417,0.0417 -0.13511,-0.0417 -0.17678,0 -0.0833,0.0833 0.0833,0.27022 0,0.35356 -0.0417,0.0417 -0.13511,-0.0417 -0.17678,0 -0.0833,0.0833 0.0833,0.27022 0,0.35355 -0.0417,0.0417 -0.13511,-0.0417 -0.17677,0 -0.0417,0.0417 0,0.11785 0,0.17678 0,0.539 0.17916,0.002 0.35355,0.17677 0.36576,0.36576 -0.55892,-0.0143 0.17678,0.35356 0.0527,0.0264 0.19541,-0.0559 0.17677,0 -0.0672,0.20155 -0.2357,0.35355 -0.35355,0.53033 z"
       id="path4168"
       inkscape:connector-curvature="0" />
  </g>
</svg>
