<?xml version="1.0" encoding="UTF-8" standalone="no"?>
<!-- Created with Inkscape (http://www.inkscape.org/) -->

<svg
   xmlns:dc="http://purl.org/dc/elements/1.1/"
   xmlns:cc="http://creativecommons.org/ns#"
   xmlns:rdf="http://www.w3.org/1999/02/22-rdf-syntax-ns#"
   xmlns:svg="http://www.w3.org/2000/svg"
   xmlns="http://www.w3.org/2000/svg"
   xmlns:sodipodi="http://sodipodi.sourceforge.net/DTD/sodipodi-0.dtd"
   xmlns:inkscape="http://www.inkscape.org/namespaces/inkscape"
   width="210mm"
   height="297mm"
   viewBox="0 0 744.09448819 1052.3622047"
   id="svg4234"
   version="1.1"
   inkscape:version="0.91 r13725"
   sodipodi:docname="kindergarden.svg">
  <defs
     id="defs4236">
    <inkscape:path-effect
       effect="spiro"
       id="path-effect4271"
       is_visible="true" />
    <inkscape:path-effect
       effect="spiro"
       id="path-effect4218"
       is_visible="true" />
  </defs>
  <sodipodi:namedview
     id="base"
     pagecolor="#ffffff"
     bordercolor="#666666"
     borderopacity="1.0"
     inkscape:pageopacity="0.0"
     inkscape:pageshadow="2"
     inkscape:zoom="0.25"
     inkscape:cx="-618.94055"
     inkscape:cy="263.40043"
     inkscape:document-units="px"
     inkscape:current-layer="layer1"
     showgrid="false"
     showguides="true"
     inkscape:guide-bbox="true"
     inkscape:snap-grids="true"
     inkscape:snap-to-guides="true"
     inkscape:snap-midpoints="false"
     inkscape:window-width="1918"
     inkscape:window-height="1013"
     inkscape:window-x="0"
     inkscape:window-y="29"
     inkscape:window-maximized="1"
     showborder="false">
    <sodipodi:guide
       position="717.00628,660.43775"
       orientation="1,0"
       id="guide5973" />
    <sodipodi:guide
       position="4,680.00002"
       orientation="1,0"
       id="guide4136" />
    <sodipodi:guide
       position="-899.43983,-367.69553"
       orientation="0,1"
       id="guide4156" />
    <sodipodi:guide
       position="370,1068"
       orientation="0,1"
       id="guide4145" />
  </sodipodi:namedview>
  <metadata
     id="metadata4239">
    <rdf:RDF>
      <cc:Work
         rdf:about="">
        <dc:format>image/svg+xml</dc:format>
        <dc:type
           rdf:resource="http://purl.org/dc/dcmitype/StillImage" />
        <dc:title></dc:title>
      </cc:Work>
    </rdf:RDF>
  </metadata>
  <g
     inkscape:label="Layer 1"
     inkscape:groupmode="layer"
     id="layer1">
    <path
       style="fill:#ff6600;fill-opacity:1"
       d="m 374.64258,112.01562 c -125.05305,0 -219.99917,101.37469 -219.99917,226.42774 0,30.60865 9.49748,67.77976 28.68276,103.125 17.95615,33.0808 42.33883,62.42077 55.62305,85.42969 19.35446,33.5229 35.17774,68.68871 48.33398,100.52539 17.23203,41.69965 26.31591,81.36137 36.33203,117.43554 11.06244,39.84264 19.78867,69.68895 29.71289,97.88477 9.17253,26.06017 22.20413,49.19398 22.20413,49.19397 0,0 0.004,-0.35223 0.0131,-0.61713 l -0.0159,-779.40692 c -0.23877,-7.4e-4 -0.64777,0.002 -0.88672,0.002 z m 1.7793,0 c -0.23896,0 -0.65186,-0.003 -0.89063,-0.002 l -10e-4,779.40692 c 0.009,0.2649 0,0.61713 0,0.61713 0,10e-6 13.03356,-23.13381 22.20608,-49.19397 9.92422,-28.19583 18.65045,-58.04214 29.71289,-97.88477 10.01612,-36.07417 19.1,-75.73589 36.33203,-117.43554 13.15624,-31.83668 28.97952,-67.00249 48.33398,-100.52539 13.28422,-23.00892 37.6669,-52.34889 55.62305,-85.42969 19.18528,-35.34524 25.82562,-72.51635 25.82562,-103.125 0,-125.05305 -92.08898,-226.42774 -217.14202,-226.42774 z"
       id="path4782-1"
       inkscape:connector-curvature="0"
       sodipodi:nodetypes="ssssssscccsscccssssssscc" />
    <circle
       style="fill:#ff6600;fill-opacity:1;stroke:#ffffff;stroke-opacity:1;stroke-width:20;stroke-miterlimit:4;stroke-dasharray:none"
       id="path6051"
       cx="372.74628"
       cy="332.12341"
       r="188.89853" />
    <g
       id="g4338"
       transform="matrix(1.3046012,0,0,1.3046012,-60.766937,-56.607238)">
      <ellipse
         ry="70.658531"
         rx="93.250038"
         cy="275.0704"
         cx="324.13235"
         id="path4172"
         style="fill:#ffffff;fill-opacity:1;stroke:none;stroke-width:7.4000001;stroke-miterlimit:4;stroke-dasharray:none;stroke-opacity:1" />
      <ellipse
         ry="15.38145"
         rx="8.1713953"
         cy="275.55106"
         cx="418.82437"
         id="path4174"
         style="fill:#ffffff;fill-opacity:1;stroke:none;stroke-width:7.4000001;stroke-miterlimit:4;stroke-dasharray:none;stroke-opacity:1" />
      <ellipse
         ry="15.38145"
         rx="8.1713953"
         cy="271.70569"
         cx="230.88232"
         id="path4174-8"
         style="fill:#ffffff;fill-opacity:1;stroke:none;stroke-width:7.4000001;stroke-miterlimit:4;stroke-dasharray:none;stroke-opacity:1" />
      <ellipse
         ry="7.6907248"
         rx="6.2487144"
         cy="261.88907"
         cx="284.85815"
         id="path4191"
         style="fill:#ff6600;fill-opacity:1;stroke:#ff6600;stroke-width:7.4000001;stroke-miterlimit:4;stroke-dasharray:none;stroke-opacity:1" />
      <ellipse
         ry="7.6907248"
         rx="6.2487144"
         cy="262.85037"
         cx="356.47806"
         id="path4191-2"
         style="fill:#ff6600;fill-opacity:1;stroke:#ff6600;stroke-width:7.4000001;stroke-miterlimit:4;stroke-dasharray:none;stroke-opacity:1" />
      <circle
         r="15.974607"
         cy="307.04517"
         cx="320.40475"
         id="path4208"
         style="fill:#ffffff;fill-opacity:1;stroke:#ff6600;stroke-width:5.03030157;stroke-miterlimit:4;stroke-dasharray:none;stroke-opacity:1" />
      <path
         sodipodi:nodetypes="zssz"
         inkscape:connector-curvature="0"
         id="path4210"
         d="m 307.48909,223.09354 c 9.32013,-5.84753 29.9099,-0.67978 29.9099,-0.67978 4.6989,2.42623 -6.13108,18.35972 -13.93529,18.35381 -7.81136,-0.006 -25.29474,-11.82651 -15.97461,-17.67403 z"
         style="fill:#ff6600;fill-opacity:1;fill-rule:evenodd;stroke:#ff6600;stroke-width:0.67977047px;stroke-linecap:butt;stroke-linejoin:miter;stroke-opacity:1" />
    </g>
    <g
       id="g4327"
       transform="matrix(0.54196651,0.43462131,-0.43462131,0.54196651,389.62168,6.2556429)">
      <rect
         y="339.03937"
         x="416.95636"
         height="110.76671"
         width="60.106236"
         id="rect4212"
         style="fill:#ff6600;fill-opacity:1;stroke:#ffffff;stroke-width:4.28240681;stroke-linecap:round;stroke-linejoin:round;stroke-miterlimit:4;stroke-dasharray:none;stroke-opacity:1" />
      <g
         style="stroke:#ffffff;stroke-width:6.28954315;stroke-linecap:round;stroke-miterlimit:4;stroke-dasharray:none;stroke-opacity:1"
         transform="matrix(0.65430135,0,0,0.65430135,1184.3768,-227.50375)"
         id="g4273">
        <g
           style="stroke:#ffffff;stroke-width:6.28954315;stroke-linecap:round;stroke-miterlimit:4;stroke-dasharray:none;stroke-opacity:1"
           id="g4265">
          <path
             sodipodi:nodetypes="cczssc"
             inkscape:connector-curvature="0"
             id="path4214"
             d="m -1174.3275,856.84718 c 5.2936,-12.14593 35.8706,-28.88555 33.9411,-49.49747 -1.0773,-5.87972 -4.024,-9.66514 -5.6568,-13.96536 -1.6328,-4.30022 -2.3519,-7.09389 -1.4143,-13.78859 0.8876,-6.33736 4.5531,-11.35438 18.1111,-14.46446 1.5829,-0.36311 2.2624,-0.208 2.2624,-0.208"
             style="fill:none;fill-rule:evenodd;stroke:#ffffff;stroke-width:6.28954315;stroke-linecap:round;stroke-linejoin:miter;stroke-miterlimit:4;stroke-dasharray:none;stroke-opacity:1" />
          <path
             sodipodi:nodetypes="cczssc"
             inkscape:connector-curvature="0"
             id="path4214-8"
             d="m -1080.3455,856.83691 c -5.2936,-12.14593 -35.8706,-28.88555 -33.9411,-49.49747 1.0773,-5.87972 4.024,-9.66514 5.6568,-13.96536 1.6328,-4.30022 2.3519,-7.09389 1.4143,-13.78859 -0.8876,-6.33736 -4.5531,-11.35438 -18.1111,-14.46446 -1.5829,-0.36311 -2.2624,-0.208 -2.2624,-0.208"
             style="fill:none;fill-rule:evenodd;stroke:#ffffff;stroke-width:6.28954315;stroke-linecap:round;stroke-linejoin:miter;stroke-miterlimit:4;stroke-dasharray:none;stroke-opacity:1" />
        </g>
        <path
           style="fill:none;fill-rule:evenodd;stroke:#ffffff;stroke-width:6.28954315;stroke-linecap:round;stroke-linejoin:miter;stroke-miterlimit:4;stroke-dasharray:none;stroke-opacity:1"
           d="m -1174.3276,856.84718 94.0452,-0.17678"
           id="path4269"
           inkscape:path-effect="#path-effect4271"
           inkscape:original-d="m -1174.3276,856.84718 94.0452,-0.17678"
           inkscape:connector-curvature="0" />
      </g>
      <rect
         y="371.70612"
         x="428.59695"
         height="0.78945357"
         width="34.341232"
         id="rect4279"
         style="fill:#ffffff;fill-opacity:1;stroke:#ffffff;stroke-width:4.13088703;stroke-miterlimit:4;stroke-dasharray:none;stroke-opacity:1" />
      <rect
         y="391.44244"
         x="428.39954"
         height="0.78945357"
         width="34.341232"
         id="rect4279-6"
         style="fill:#ffffff;fill-opacity:1;stroke:#ffffff;stroke-width:4.13088703;stroke-miterlimit:4;stroke-dasharray:none;stroke-opacity:1" />
      <rect
         y="411.9682"
         x="429.97849"
         height="0.78945357"
         width="34.341232"
         id="rect4279-0"
         style="fill:#ffffff;fill-opacity:1;stroke:#ffffff;stroke-width:4.13088703;stroke-miterlimit:4;stroke-dasharray:none;stroke-opacity:1" />
    </g>
  </g>
</svg>
