<?xml version="1.0" encoding="UTF-8" standalone="no"?>
<!-- Created with Inkscape (http://www.inkscape.org/) -->

<svg
   xmlns:dc="http://purl.org/dc/elements/1.1/"
   xmlns:cc="http://creativecommons.org/ns#"
   xmlns:rdf="http://www.w3.org/1999/02/22-rdf-syntax-ns#"
   xmlns:svg="http://www.w3.org/2000/svg"
   xmlns="http://www.w3.org/2000/svg"
   xmlns:sodipodi="http://sodipodi.sourceforge.net/DTD/sodipodi-0.dtd"
   xmlns:inkscape="http://www.inkscape.org/namespaces/inkscape"
   width="210mm"
   height="297mm"
   viewBox="0 0 744.09448819 1052.3622047"
   id="svg4234"
   version="1.1"
   inkscape:version="0.91 r13725"
   sodipodi:docname="potential.svg">
  <defs
     id="defs4236" />
  <sodipodi:namedview
     id="base"
     pagecolor="#ffffff"
     bordercolor="#666666"
     borderopacity="1.0"
     inkscape:pageopacity="0.0"
     inkscape:pageshadow="2"
     inkscape:zoom="0.25"
     inkscape:cx="546.70747"
     inkscape:cy="115.60502"
     inkscape:document-units="px"
     inkscape:current-layer="layer1"
     showgrid="false"
     showguides="true"
     inkscape:guide-bbox="true"
     inkscape:snap-grids="true"
     inkscape:snap-to-guides="true"
     inkscape:snap-midpoints="false"
     inkscape:window-width="1918"
     inkscape:window-height="1013"
     inkscape:window-x="0"
     inkscape:window-y="29"
     inkscape:window-maximized="1"
     showborder="false">
    <sodipodi:guide
       position="674.00001,938.00002"
       orientation="1,0"
       id="guide5973" />
    <sodipodi:guide
       position="86.000001,726.00002"
       orientation="1,0"
       id="guide4136" />
    <sodipodi:guide
       position="964.00001,122"
       orientation="0,1"
       id="guide4156" />
    <sodipodi:guide
       position="-449.71992,1199.2531"
       orientation="0,1"
       id="guide4195" />
  </sodipodi:namedview>
  <metadata
     id="metadata4239">
    <rdf:RDF>
      <cc:Work
         rdf:about="">
        <dc:format>image/svg+xml</dc:format>
        <dc:type
           rdf:resource="http://purl.org/dc/dcmitype/StillImage" />
        <dc:title></dc:title>
      </cc:Work>
    </rdf:RDF>
  </metadata>
  <g
     inkscape:label="Layer 1"
     inkscape:groupmode="layer"
     id="layer1">
    <path
       style="fill:#ff6600;fill-opacity:1"
       d="m 374.64258,112.01562 c -125.05305,0 -219.99917,101.37469 -219.99917,226.42774 0,30.60865 9.49748,67.77976 28.68276,103.125 17.95615,33.0808 42.33883,62.42077 55.62305,85.42969 19.35446,33.5229 35.17774,68.68871 48.33398,100.52539 17.23203,41.69965 26.31591,81.36137 36.33203,117.43554 11.06244,39.84264 19.78867,69.68895 29.71289,97.88477 9.17253,26.06017 22.20413,49.19398 22.20413,49.19397 0,0 0.004,-0.35223 0.0131,-0.61713 l -0.0159,-779.40692 c -0.23877,-7.4e-4 -0.64777,0.002 -0.88672,0.002 z m 1.7793,0 c -0.23896,0 -0.65186,-0.003 -0.89063,-0.002 l -10e-4,779.40692 c 0.009,0.2649 0,0.61713 0,0.61713 0,10e-6 13.03356,-23.13381 22.20608,-49.19397 9.92422,-28.19583 18.65045,-58.04214 29.71289,-97.88477 10.01612,-36.07417 19.1,-75.73589 36.33203,-117.43554 13.15624,-31.83668 28.97952,-67.00249 48.33398,-100.52539 13.28422,-23.00892 37.6669,-52.34889 55.62305,-85.42969 19.18528,-35.34524 25.82562,-72.51635 25.82562,-103.125 0,-125.05305 -92.08898,-226.42774 -217.14202,-226.42774 z"
       id="path4782-1"
       inkscape:connector-curvature="0"
       sodipodi:nodetypes="ssssssscccsscccssssssscc" />
    <circle
       style="fill:#ff6600;fill-opacity:1;stroke:#ffffff;stroke-opacity:1;stroke-width:20;stroke-miterlimit:4;stroke-dasharray:none"
       id="path6051"
       cx="372.74628"
       cy="332.12341"
       r="188.89853" />
    <g
       id="g4187"
       transform="translate(-1,-7.5)">
      <rect
         y="296.60294"
         x="306.44919"
         height="149.48987"
         width="139.29738"
         id="rect4137"
         style="fill:#ffffff;fill-opacity:1;stroke:#ffffff;stroke-opacity:1" />
      <rect
         transform="matrix(0.70803066,0.70618169,-0.70803066,0.70618169,0,0)"
         y="-107.40648"
         x="423.52155"
         height="147.37593"
         width="15.03836"
         id="rect4139"
         style="fill:#ffffff;fill-opacity:1;stroke:#ffffff;stroke-width:3.84383583;stroke-linecap:round;stroke-linejoin:round;stroke-miterlimit:4;stroke-dasharray:none;stroke-opacity:1" />
      <rect
         transform="matrix(-0.70776035,0.70645261,0.70776035,0.70645261,0,0)"
         y="423.75629"
         x="-107.63795"
         height="147.33881"
         width="15.034573"
         id="rect4139-1"
         style="fill:#ffffff;fill-opacity:1;stroke:#ffffff;stroke-width:3.84383225;stroke-linecap:round;stroke-linejoin:round;stroke-miterlimit:4;stroke-dasharray:none;stroke-opacity:1" />
      <path
         inkscape:connector-curvature="0"
         id="path4158"
         d="m 310.92944,304.59708 66.06581,-66.96671 69.9697,70.5703 z"
         style="fill:#ffffff;fill-opacity:1;fill-rule:evenodd;stroke:#ffffff;stroke-width:0.60059828px;stroke-linecap:butt;stroke-linejoin:miter;stroke-opacity:1" />
      <rect
         y="371.77255"
         x="354.86356"
         height="76.018997"
         width="48.839024"
         id="rect4160"
         style="fill:#ff6600;fill-opacity:1;stroke:#ff6600;stroke-width:0.60059828;stroke-opacity:1" />
      <ellipse
         ry="22.784416"
         rx="22.678242"
         cy="371.13547"
         cx="379.17682"
         id="path4162"
         style="fill:#ff6600;fill-opacity:1;stroke:#ff6600;stroke-width:3.29183888;stroke-linecap:round;stroke-linejoin:round;stroke-miterlimit:4;stroke-dasharray:none;stroke-opacity:1" />
    </g>
    <text
       xml:space="preserve"
       style="font-style:normal;font-weight:normal;font-size:266.92550659px;line-height:125%;font-family:sans-serif;letter-spacing:0px;word-spacing:0px;fill:#ff6600;fill-opacity:1;stroke:none;stroke-width:1px;stroke-linecap:butt;stroke-linejoin:miter;stroke-opacity:1"
       x="265.23074"
       y="107.84709"
       id="text4216"
       sodipodi:linespacing="125%"
       transform="scale(1.1030915,0.90654312)"><tspan
         sodipodi:role="line"
         id="tspan4218"
         x="265.23074"
         y="107.84709"
         style="font-weight:bold">?</tspan></text>
  </g>
</svg>
