<?xml version="1.0" encoding="UTF-8" standalone="no"?>
<!-- Created with Inkscape (http://www.inkscape.org/) -->

<svg
   xmlns:dc="http://purl.org/dc/elements/1.1/"
   xmlns:cc="http://creativecommons.org/ns#"
   xmlns:rdf="http://www.w3.org/1999/02/22-rdf-syntax-ns#"
   xmlns:svg="http://www.w3.org/2000/svg"
   xmlns="http://www.w3.org/2000/svg"
   xmlns:sodipodi="http://sodipodi.sourceforge.net/DTD/sodipodi-0.dtd"
   xmlns:inkscape="http://www.inkscape.org/namespaces/inkscape"
   width="210mm"
   height="297mm"
   viewBox="0 0 744.09448819 1052.3622047"
   id="svg4234"
   version="1.1"
   inkscape:version="0.91 r13725"
   sodipodi:docname="nursing_home.svg">
  <defs
     id="defs4236">
    <inkscape:path-effect
       effect="spiro"
       id="path-effect3547"
       is_visible="true" />
    <inkscape:path-effect
       effect="spiro"
       id="path-effect3547-6"
       is_visible="true" />
  </defs>
  <sodipodi:namedview
     id="base"
     pagecolor="#ffffff"
     bordercolor="#666666"
     borderopacity="1.0"
     inkscape:pageopacity="0.0"
     inkscape:pageshadow="2"
     inkscape:zoom="0.25"
     inkscape:cx="800.97055"
     inkscape:cy="777.40716"
     inkscape:document-units="px"
     inkscape:current-layer="layer1"
     showgrid="false"
     showguides="true"
     inkscape:guide-bbox="true"
     inkscape:snap-grids="true"
     inkscape:snap-to-guides="true"
     inkscape:snap-midpoints="false"
     inkscape:window-width="1920"
     inkscape:window-height="1016"
     inkscape:window-x="0"
     inkscape:window-y="27"
     inkscape:window-maximized="1"
     showborder="false">
    <sodipodi:guide
       position="717.00628,660.43775"
       orientation="1,0"
       id="guide5973" />
    <sodipodi:guide
       position="4,680.00002"
       orientation="1,0"
       id="guide4136" />
    <sodipodi:guide
       position="386,36.000001"
       orientation="0,1"
       id="guide4156" />
    <sodipodi:guide
       position="370,1068"
       orientation="0,1"
       id="guide4145" />
  </sodipodi:namedview>
  <metadata
     id="metadata4239">
    <rdf:RDF>
      <cc:Work
         rdf:about="">
        <dc:format>image/svg+xml</dc:format>
        <dc:type
           rdf:resource="http://purl.org/dc/dcmitype/StillImage" />
        <dc:title></dc:title>
      </cc:Work>
    </rdf:RDF>
  </metadata>
  <g
     inkscape:label="Layer 1"
     inkscape:groupmode="layer"
     id="layer1">
    <path
       style="fill:#6c66e9;fill-opacity:1"
       d="m 374.64258,112.01562 c -125.05305,0 -219.99917,101.37469 -219.99917,226.42774 0,30.60865 9.49748,67.77976 28.68276,103.125 17.95615,33.0808 42.33883,62.42077 55.62305,85.42969 19.35446,33.5229 35.17774,68.68871 48.33398,100.52539 17.23203,41.69965 26.31591,81.36137 36.33203,117.43554 11.06244,39.84264 19.78867,69.68895 29.71289,97.88477 9.17253,26.06017 22.20413,49.19398 22.20413,49.19397 0,0 0.004,-0.35223 0.0131,-0.61713 l -0.0159,-779.40692 c -0.23877,-7.4e-4 -0.64777,0.002 -0.88672,0.002 z m 1.7793,0 c -0.23896,0 -0.65186,-0.003 -0.89063,-0.002 l -10e-4,779.40692 c 0.009,0.2649 0,0.61713 0,0.61713 0,10e-6 13.03356,-23.13381 22.20608,-49.19397 9.92422,-28.19583 18.65045,-58.04214 29.71289,-97.88477 10.01612,-36.07417 19.1,-75.73589 36.33203,-117.43554 13.15624,-31.83668 28.97952,-67.00249 48.33398,-100.52539 13.28422,-23.00892 37.6669,-52.34889 55.62305,-85.42969 19.18528,-35.34524 25.82562,-72.51635 25.82562,-103.125 0,-125.05305 -92.08898,-226.42774 -217.14202,-226.42774 z"
       id="path4782-1"
       inkscape:connector-curvature="0"
       sodipodi:nodetypes="ssssssscccsscccssssssscc" />
    <circle
       style="fill:#6c66e9;fill-opacity:1;stroke:#ffffff;stroke-opacity:1;stroke-width:20;stroke-miterlimit:4;stroke-dasharray:none"
       id="path6051"
       cx="372.74628"
       cy="332.12341"
       r="188.89853" />
    <g
       id="g4492"
       style="fill:#ffffff;fill-opacity:1;stroke:#ffffff;stroke-opacity:1"
       transform="matrix(1.3691301,0,0,1.3691301,665.85039,-132.97072)">
      <circle
         r="33.587574"
         cy="255.0993"
         cx="-212.48558"
         id="path3543"
         style="fill:#ffffff;fill-opacity:1;stroke:#ffffff;stroke-width:2;stroke-linecap:round;stroke-linejoin:round;stroke-miterlimit:4;stroke-dasharray:none;stroke-opacity:1" />
      <g
         style="fill:#ffffff;fill-opacity:1;stroke:#ffffff;stroke-opacity:1"
         transform="translate(0.125,-0.75)"
         id="g4433">
        <rect
           style="fill:#ffffff;fill-opacity:1;stroke:#ffffff;stroke-width:3.76151466;stroke-linecap:round;stroke-linejoin:round;stroke-miterlimit:4;stroke-dasharray:none;stroke-opacity:1"
           id="rect4399-7"
           width="13.219064"
           height="98.680634"
           x="51.37183"
           y="408.57599"
           transform="matrix(1,0,-0.69008694,0.72372648,0,0)" />
        <rect
           style="fill:#ffffff;fill-opacity:1;stroke:#ffffff;stroke-width:3.76151466;stroke-linecap:round;stroke-linejoin:round;stroke-miterlimit:4;stroke-dasharray:none;stroke-opacity:1"
           id="rect4399-7-9"
           width="13.219064"
           height="98.680634"
           x="474.66617"
           y="408.57599"
           transform="matrix(-1,0,0.69008694,0.72372648,0,0)" />
      </g>
      <rect
         y="365.35818"
         x="-292.68076"
         height="73.535789"
         width="1.6330618"
         id="rect4431"
         style="fill:#ffffff;fill-opacity:1;stroke:#ffffff;stroke-width:3.79200006;stroke-linecap:round;stroke-linejoin:round;stroke-miterlimit:4;stroke-dasharray:none;stroke-opacity:1" />
      <g
         id="g4439"
         style="fill:#ffffff;fill-opacity:1;stroke:#ffffff;stroke-opacity:1">
        <path
           id="path3545-3"
           style="fill:#ffffff;fill-opacity:1;fill-rule:evenodd;stroke:#ffffff;stroke-width:4.19999981;stroke-linecap:butt;stroke-linejoin:round;stroke-miterlimit:4;stroke-dasharray:none;stroke-opacity:1"
           d="m -192.93249,294.81009 48.79037,120.91525 -70.5339,-1.50261 1.27697,-118.42971 z m -37.4294,0 -48.79037,120.91526 70.88746,-1.50261 -1.63053,-118.42972 z"
           inkscape:connector-curvature="0"
           sodipodi:nodetypes="cccccccccc" />
        <rect
           style="fill:#ffffff;fill-opacity:1;stroke:#ffffff;stroke-width:4.797194;stroke-linecap:round;stroke-linejoin:round;stroke-miterlimit:4;stroke-dasharray:none;stroke-opacity:1"
           id="rect4437"
           width="22.383776"
           height="102.28684"
           x="-222.08649"
           y="308.07736" />
      </g>
      <g
         transform="translate(5.0343133,-11.5)"
         id="g4481"
         style="fill:#ffffff;fill-opacity:1;stroke:#ffffff;stroke-opacity:1">
        <rect
           style="fill:#ffffff;fill-opacity:1;stroke:#ffffff;stroke-width:2.73864532;stroke-linecap:round;stroke-linejoin:round;stroke-miterlimit:4;stroke-dasharray:none;stroke-opacity:1"
           id="rect4443"
           width="20.553238"
           height="18.431917"
           x="-248.13962"
           y="431.43713" />
        <rect
           style="fill:#ffffff;fill-opacity:1;stroke:#ffffff;stroke-width:2.73864532;stroke-linecap:round;stroke-linejoin:round;stroke-miterlimit:4;stroke-dasharray:none;stroke-opacity:1"
           id="rect4443-3"
           width="20.553238"
           height="18.431917"
           x="-205.77663"
           y="431.43713" />
      </g>
      <path
         transform="scale(1,-1)"
         d="m -285.39823,-438.84064 a 6.4659925,10.389235 0 0 1 -6.45393,10.38922 6.4659925,10.389235 0 0 1 -6.47801,-10.35043"
         sodipodi:open="true"
         sodipodi:end="3.1378596"
         sodipodi:start="0"
         sodipodi:ry="10.389235"
         sodipodi:rx="6.4659925"
         sodipodi:cy="-438.84064"
         sodipodi:cx="-291.86423"
         sodipodi:type="arc"
         id="path4485"
         style="fill:#ffffff;fill-opacity:1;stroke:#ffffff;stroke-width:4.46999979;stroke-linecap:round;stroke-linejoin:round;stroke-miterlimit:4;stroke-dasharray:none;stroke-opacity:1" />
      <path
         transform="scale(1,-1)"
         d="m -168.65612,-254.91054 a 42.939205,41.933548 0 0 1 -42.50554,41.93141 42.939205,41.933548 0 0 1 -43.36411,-41.08444 l 42.93045,-0.84697 z"
         sodipodi:end="3.1213934"
         sodipodi:start="0"
         sodipodi:ry="41.933548"
         sodipodi:rx="42.939205"
         sodipodi:cy="-254.91054"
         sodipodi:cx="-211.59532"
         sodipodi:type="arc"
         id="path4490"
         style="fill:#ffffff;fill-opacity:1;stroke:#ffffff;stroke-width:3.48369026;stroke-linecap:round;stroke-linejoin:round;stroke-miterlimit:4;stroke-dasharray:none;stroke-opacity:1" />
    </g>
  </g>
</svg>
