<?xml version="1.0" encoding="UTF-8" standalone="no"?>
<!-- Created with Inkscape (http://www.inkscape.org/) -->

<svg
   xmlns:dc="http://purl.org/dc/elements/1.1/"
   xmlns:cc="http://creativecommons.org/ns#"
   xmlns:rdf="http://www.w3.org/1999/02/22-rdf-syntax-ns#"
   xmlns:svg="http://www.w3.org/2000/svg"
   xmlns="http://www.w3.org/2000/svg"
   xmlns:sodipodi="http://sodipodi.sourceforge.net/DTD/sodipodi-0.dtd"
   xmlns:inkscape="http://www.inkscape.org/namespaces/inkscape"
   width="210mm"
   height="297mm"
   viewBox="0 0 744.09448819 1052.3622047"
   id="svg4153"
   version="1.1"
   inkscape:version="0.91 r13725"
   sodipodi:docname="settings.svg">
  <defs
     id="defs4155" />
  <sodipodi:namedview
     id="base"
     pagecolor="#ffffff"
     bordercolor="#666666"
     borderopacity="1.0"
     inkscape:pageopacity="0.0"
     inkscape:pageshadow="2"
     inkscape:zoom="0.98994949"
     inkscape:cx="346.47021"
     inkscape:cy="552.86344"
     inkscape:document-units="px"
     inkscape:current-layer="layer1"
     showgrid="false"
     inkscape:window-width="1920"
     inkscape:window-height="1016"
     inkscape:window-x="0"
     inkscape:window-y="27"
     inkscape:window-maximized="1" />
  <metadata
     id="metadata4158">
    <rdf:RDF>
      <cc:Work
         rdf:about="">
        <dc:format>image/svg+xml</dc:format>
        <dc:type
           rdf:resource="http://purl.org/dc/dcmitype/StillImage" />
        <dc:title></dc:title>
      </cc:Work>
    </rdf:RDF>
  </metadata>
  <g
     inkscape:label="Layer 1"
     inkscape:groupmode="layer"
     id="layer1">
    <path
       style="fill:#5c4b4c;stroke:#494b58;stroke-width:29.00000019;stroke-linejoin:round;stroke-miterlimit:4;stroke-dasharray:none;stroke-opacity:1;fill-opacity:0.59420288"
       d="m 333.14464,807.5018 -9.9453,-0.7856 -7.2495,-23.52815 c -3.9873,-12.94045 -9.0846,-29.6451 -11.3275,-37.12139 -2.2428,-7.4763 -5.3804,-14.26601 -6.9723,-15.08826 -1.592,-0.82225 -12.4597,-4.50987 -24.1505,-8.19473 l -21.256,-6.69974 -30.9948,23.29457 c -30.284,22.76039 -31.1255,23.2269 -36.6994,20.34454 -6.6153,-3.4209 -39.0508,-27.21369 -40.6569,-29.82351 -0.5964,-0.96908 4.9021,-18.23508 12.2188,-38.36887 l 13.3033,-36.60691 -7.7295,-9.41483 c -4.2511,-5.17816 -10.6829,-13.76533 -14.2927,-19.08261 l -6.5633,-9.66778 -40.5789,0 -40.578983,0 -6.81971,-19.13921 c -3.75083,-10.52656 -7.45374,-22.5189 -8.22867,-26.64964 l -1.40896,-7.51043 32.62418,-21.68466 32.624143,-21.68466 -0.1182,-23.69767 -0.1181,-23.69766 -32.299243,-22.10796 c -17.76456,-12.15937 -32.2992,-23.42847 -32.2992,-25.04244 0,-3.48543 12.1417,-40.30372 15.18705,-46.05295 2.00901,-3.79277 4.19218,-3.93244 41.804293,-2.67438 l 39.6845,1.32737 5.1378,-8.13881 c 2.8258,-4.47635 9.4439,-13.42548 14.7068,-19.88696 5.263,-6.46148 9.569,-13.09887 9.569,-14.74975 0,-1.65088 -5.6337,-18.41995 -12.5194,-37.26461 -11.6989,-32.01728 -12.2938,-34.51235 -9.0767,-38.06721 6.8821,-7.60456 43.3224,-30.92749 45.5958,-29.1827 1.2479,0.95776 15.685,11.79523 32.0824,24.08327 l 29.8134,22.34188 13.2671,-4.93154 c 7.297,-2.71234 18.2286,-6.09583 24.2926,-7.51886 l 11.0254,-2.58733 7.2201,-23.43395 c 3.9711,-12.88868 9.0635,-29.58082 11.3164,-37.09365 l 4.0962,-13.65969 10.2313,-1.63299 c 5.6273,-0.89814 18.9737,-1.04668 29.6588,-0.3301 l 19.4275,1.30288 7.224,23.44651 c 3.9733,12.89558 9.0592,29.56347 11.302,37.03977 2.2429,7.4763 5.3804,14.26601 6.9724,15.08826 1.5919,0.82224 12.469,4.51294 24.1712,8.20155 l 21.2769,6.70656 29.1589,-21.92236 c 16.0375,-12.0573 30.2348,-22.56437 31.5497,-23.34905 2.686,-1.60281 29.1944,15.21157 41.1382,26.09402 l 7.8035,7.11012 -13.4315,36.60691 -13.4314,36.60691 7.7294,9.41483 c 4.2512,5.17815 10.6829,13.76533 14.2927,19.08261 l 6.5633,9.66777 40.579,0 40.5789,0 6.8197,19.13921 c 3.7509,10.52656 7.4538,22.5189 8.2287,26.64964 l 1.409,7.51043 -32.6242,21.68466 -32.6242,21.68466 0.1181,23.69767 0.1181,23.69766 32.2992,22.10796 c 17.7647,12.15937 32.2994,23.42847 32.2994,25.04244 0,3.48543 -12.1417,40.30372 -15.1871,46.05296 -2.009,3.79277 -4.1922,3.93243 -41.8042,2.67438 l -39.6846,-1.32739 -5.1378,8.13882 c -2.8258,4.47635 -9.4438,13.42549 -14.7068,19.88696 -5.2629,6.46148 -9.569,13.09887 -9.569,14.74974 0,1.65089 5.6338,18.41997 12.5194,37.26463 11.6989,32.01727 12.2938,34.51235 9.0767,38.06721 -6.882,7.60456 -43.3223,30.92747 -45.5957,29.18269 -1.248,-0.95775 -15.6851,-11.79523 -32.0824,-24.08326 l -29.8134,-22.3419 -13.2672,4.93155 c -7.2969,2.71233 -18.2286,6.09584 -24.2926,7.51887 l -11.0253,2.58733 -7.2202,23.43394 c -3.9711,12.88868 -9.0617,29.58082 -11.3125,37.09365 l -4.0924,13.65969 -9.1844,1.42036 c -9.5329,1.47422 -23.0653,1.53783 -40.1446,0.18871 z m 38.9113,-162.41622 c 43.8452,-6.33984 85.2645,-33.96636 107.1592,-71.47476 45.5487,-78.03049 10.3119,-179.15968 -74.1313,-212.75633 -39.8304,-15.84696 -89.8188,-12.1412 -128.191,9.5031 -6.357,3.58575 -19.6934,14.62782 -29.6365,24.53792 -15.0403,14.99044 -19.7277,21.37328 -27.893,37.98254 -12.7235,25.88089 -16.7684,44.9551 -15.3748,72.50144 1.938,38.30861 15.6156,69.50714 42.4327,96.7895 33.5367,34.11834 79.0231,49.65645 125.6347,42.91659 z"
       id="path4714"
       inkscape:connector-curvature="0" />
  </g>
</svg>
