<?xml version="1.0" encoding="UTF-8" standalone="no"?>
<!-- Created with Inkscape (http://www.inkscape.org/) -->

<svg
   xmlns:dc="http://purl.org/dc/elements/1.1/"
   xmlns:cc="http://creativecommons.org/ns#"
   xmlns:rdf="http://www.w3.org/1999/02/22-rdf-syntax-ns#"
   xmlns:svg="http://www.w3.org/2000/svg"
   xmlns="http://www.w3.org/2000/svg"
   xmlns:sodipodi="http://sodipodi.sourceforge.net/DTD/sodipodi-0.dtd"
   xmlns:inkscape="http://www.inkscape.org/namespaces/inkscape"
   width="210mm"
   height="297mm"
   viewBox="0 0 744.09448819 1052.3622047"
   id="svg4234"
   version="1.1"
   inkscape:version="0.91 r13725"
   sodipodi:docname="work.svg">
  <defs
     id="defs4236">
    <inkscape:path-effect
       effect="spiro"
       id="path-effect4224"
       is_visible="true" />
    <inkscape:path-effect
       effect="spiro"
       id="path-effect4220"
       is_visible="true" />
    <inkscape:path-effect
       effect="spiro"
       id="path-effect4175"
       is_visible="true" />
    <inkscape:path-effect
       effect="spiro"
       id="path-effect4171"
       is_visible="true" />
  </defs>
  <sodipodi:namedview
     id="base"
     pagecolor="#ffffff"
     bordercolor="#666666"
     borderopacity="1.0"
     inkscape:pageopacity="0.0"
     inkscape:pageshadow="2"
     inkscape:zoom="1"
     inkscape:cx="311.91195"
     inkscape:cy="560.28568"
     inkscape:document-units="px"
     inkscape:current-layer="layer1"
     showgrid="false"
     showguides="true"
     inkscape:guide-bbox="true"
     inkscape:snap-grids="true"
     inkscape:snap-to-guides="true"
     inkscape:snap-midpoints="false"
     inkscape:window-width="1918"
     inkscape:window-height="1042"
     inkscape:window-x="0"
     inkscape:window-y="1080"
     inkscape:window-maximized="1"
     showborder="false">
    <sodipodi:guide
       position="717.00628,660.43775"
       orientation="1,0"
       id="guide5973" />
    <sodipodi:guide
       position="4,680.00002"
       orientation="1,0"
       id="guide4136" />
    <sodipodi:guide
       position="386,36.000001"
       orientation="0,1"
       id="guide4156" />
    <sodipodi:guide
       position="370,1068"
       orientation="0,1"
       id="guide4145" />
  </sodipodi:namedview>
  <metadata
     id="metadata4239">
    <rdf:RDF>
      <cc:Work
         rdf:about="">
        <dc:format>image/svg+xml</dc:format>
        <dc:type
           rdf:resource="http://purl.org/dc/dcmitype/StillImage" />
        <dc:title />
      </cc:Work>
    </rdf:RDF>
  </metadata>
  <g
     inkscape:label="Layer 1"
     inkscape:groupmode="layer"
     id="layer1">
    <path
       style="fill:#6cdc5c;fill-opacity:1"
       d="m 374.64258,112.01562 c -125.05305,0 -219.99917,101.37469 -219.99917,226.42774 0,30.60865 9.49748,67.77976 28.68276,103.125 17.95615,33.0808 42.33883,62.42077 55.62305,85.42969 19.35446,33.5229 35.17774,68.68871 48.33398,100.52539 17.23203,41.69965 26.31591,81.36137 36.33203,117.43554 11.06244,39.84264 19.78867,69.68895 29.71289,97.88477 9.17253,26.06017 22.20413,49.19398 22.20413,49.19397 0,0 0.004,-0.35223 0.0131,-0.61713 l -0.0159,-779.40692 c -0.23877,-7.4e-4 -0.64777,0.002 -0.88672,0.002 z m 1.7793,0 c -0.23896,0 -0.65186,-0.003 -0.89063,-0.002 l -10e-4,779.40692 c 0.009,0.2649 0,0.61713 0,0.61713 0,10e-6 13.03356,-23.13381 22.20608,-49.19397 9.92422,-28.19583 18.65045,-58.04214 29.71289,-97.88477 10.01612,-36.07417 19.1,-75.73589 36.33203,-117.43554 13.15624,-31.83668 28.97952,-67.00249 48.33398,-100.52539 13.28422,-23.00892 37.6669,-52.34889 55.62305,-85.42969 19.18528,-35.34524 25.82562,-72.51635 25.82562,-103.125 0,-125.05305 -92.08898,-226.42774 -217.14202,-226.42774 z"
       id="path4782-1"
       inkscape:connector-curvature="0"
       sodipodi:nodetypes="ssssssscccsscccssssssscc" />
    <circle
       style="fill:#6cdc5c;fill-opacity:1;stroke:#ffffff;stroke-opacity:1;stroke-width:20;stroke-miterlimit:4;stroke-dasharray:none"
       id="path6051"
       cx="372.74628"
       cy="332.12341"
       r="188.89853" />
    <circle
       style="fill:#ffffff;fill-opacity:1;stroke:#ffffff;stroke-width:0.98855424;stroke-linecap:round;stroke-linejoin:round;stroke-miterlimit:4;stroke-dasharray:none;stroke-opacity:1"
       id="path4165"
       cx="373.98441"
       cy="237.87204"
       r="46.49015" />
    <path
       style="fill:#ffffff;fill-opacity:1;stroke:#ffffff;stroke-width:1.57419074;stroke-linecap:round;stroke-linejoin:round;stroke-miterlimit:4;stroke-dasharray:none;stroke-opacity:1"
       id="path4167"
       sodipodi:type="arc"
       sodipodi:cx="374.85657"
       sodipodi:cy="-409.72897"
       sodipodi:rx="96.845543"
       sodipodi:ry="126.40118"
       sodipodi:start="5.3247904"
       sodipodi:end="4.0813573"
       d="m 430.52669,-513.15926 a 96.845543,126.40118 0 0 1 36.80568,140.97069 96.845543,126.40118 0 0 1 -91.57369,88.85529 96.845543,126.40118 0 0 1 -92.82605,-86.6133 96.845543,126.40118 0 0 1 34.78719,-141.84114"
       sodipodi:open="true"
       transform="scale(1,-1)" />
    <g
       id="g4153"
       transform="matrix(1.3548342,0,0,1.3548342,-129.44298,-110.89369)"
       style="stroke:#6cdc5c;stroke-opacity:1;fill:#6cdc5c;fill-opacity:1">
      <path
         inkscape:connector-curvature="0"
         inkscape:original-d="m 356.63364,298.89577 28.23201,0 -14.11599,14.11603 z"
         inkscape:path-effect="#path-effect4171"
         id="path4169"
         d="m 356.63364,298.89577 28.23201,0 -14.11599,14.11603 -14.11602,-14.11603 z"
         style="fill:#6cdc5c;fill-opacity:1;fill-rule:evenodd;stroke:#6cdc5c;stroke-width:0.92851382px;stroke-linecap:butt;stroke-linejoin:miter;stroke-opacity:1" />
      <path
         sodipodi:nodetypes="ccccc"
         inkscape:connector-curvature="0"
         inkscape:original-d="m 370.60676,313.04364 20.86059,79.68749 -17.94011,20.44343 -20.86061,-18.77454 z"
         inkscape:path-effect="#path-effect4175"
         id="path4173"
         d="m 370.60676,313.04364 20.86059,79.68749 -17.94011,20.44343 -20.86061,-18.77454 17.94013,-81.35638 z"
         style="fill:#6cdc5c;fill-opacity:1;fill-rule:evenodd;stroke:#6cdc5c;stroke-width:1.18005419px;stroke-linecap:butt;stroke-linejoin:miter;stroke-opacity:1" />
    </g>
  </g>
</svg>
